<svg width="310" height="174" viewBox="0 0 310 174" fill="none" xmlns="http://www.w3.org/2000/svg">
<g clip-path="url(#clip0_1_2)">
<rect width="310" height="174" fill="white"/>
<g clip-path="url(#clip1_1_2)">
<path d="M0 0H310V174H0V0Z" fill="#F0F4F7"/>
<path d="M10 10H300V175H10V10Z" fill="#0B1A3E"/>
<path d="M287.976 74H206.024C204.906 74 204 75.0285 204 76.2973V156.703C204 157.971 204.906 159 206.024 159H287.976C289.094 159 290 157.971 290 156.703V76.2973C290 75.0285 289.094 74 287.976 74Z" fill="#0B1A3E" stroke="#98B1FF"/>
<path d="M247 145C260.255 145 271 134.255 271 121C271 107.745 260.255 97 247 97C233.745 97 223 107.745 223 121C223 134.255 233.745 145 247 145Z" fill="#9D53F2"/>
<mask id="mask0_1_2" style="mask-type:luminance" maskUnits="userSpaceOnUse" x="223" y="97" width="48" height="48">
<path d="M247 145C260.255 145 271 134.255 271 121C271 107.745 260.255 97 247 97C233.745 97 223 107.745 223 121C223 134.255 233.745 145 247 145Z" fill="#77B5F2"/>
</mask>
<g mask="url(#mask0_1_2)">
<path d="M247.464 120.45H277.104L271.452 139.075L253.69 150.256H228.692L215.214 120.45H247.464Z" fill="#77B5F2"/>
</g>
<mask id="mask1_1_2" style="mask-type:luminance" maskUnits="userSpaceOnUse" x="223" y="97" width="48" height="48">
<path d="M247 145C260.255 145 271 134.255 271 121C271 107.745 260.255 97 247 97C233.745 97 223 107.745 223 121C223 134.255 233.745 145 247 145Z" fill="#347FDB"/>
</mask>
<g mask="url(#mask1_1_2)">
<path d="M247.295 92.1438V120.931H278.944L268.8 98.3113L247.295 92.1438Z" fill="#347FDB"/>
</g>
<mask id="mask2_1_2" style="mask-type:luminance" maskUnits="userSpaceOnUse" x="223" y="97" width="48" height="48">
<path d="M247 145C260.255 145 271 134.255 271 121C271 107.745 260.255 97 247 97C233.745 97 223 107.745 223 121C223 134.255 233.745 145 247 145Z" fill="white"/>
</mask>
<g mask="url(#mask2_1_2)">
<path d="M247 133C253.627 133 259 127.627 259 121C259 114.373 253.627 109 247 109C240.373 109 235 114.373 235 121C235 127.627 240.373 133 247 133Z" fill="#0B1A3E"/>
</g>
<path d="M268 84H226C224.343 84 223 85.3431 223 87C223 88.6569 224.343 90 226 90H268C269.657 90 271 88.6569 271 87C271 85.3431 269.657 84 268 84Z" fill="#C5D3E0"/>
<path opacity="0.25" d="M50 99H24C22.3431 99 21 100.343 21 102C21 103.657 22.3431 105 24 105H50C51.6569 105 53 103.657 53 102C53 100.343 51.6569 99 50 99Z" fill="white"/>
<path opacity="0.5" d="M82 113H24C22.3431 113 21 114.343 21 116C21 117.657 22.3431 119 24 119H82C83.6569 119 85 117.657 85 116C85 114.343 83.6569 113 82 113Z" fill="white"/>
<path d="M106 157L106 76C106 74.8954 105.105 74 104 74L22 74C20.8954 74 20 74.8954 20 76L20 157C20 158.105 20.8954 159 22 159L104 159C105.105 159 106 158.105 106 157Z" fill="#0B1A3E" stroke="#98B1FF"/>
<path d="M82 83L40 83C38.3431 83 37 84.3431 37 86C37 87.6569 38.3431 89 40 89L82 89C83.6569 89 85 87.6569 85 86C85 84.3432 83.6569 83 82 83Z" fill="#C5D3E0"/>
<path d="M31 97C29.3431 97 28 98.3431 28 100C28 101.657 29.3431 103 31 103L92 103C93.6569 103 95 101.657 95 100C95 98.3431 93.6569 97 92 97L31 97Z" fill="#347FDB"/>
<path d="M31 107.5C29.3431 107.5 28 108.843 28 110.5C28 112.157 29.3431 113.5 31 113.5L77 113.5C78.6569 113.5 80 112.157 80 110.5C80 108.843 78.6569 107.5 77 107.5L31 107.5Z" fill="#347FDB"/>
<path d="M31 118C29.3431 118 28 119.343 28 121C28 122.657 29.3431 124 31 124L59 124C60.6569 124 62 122.657 62 121C62 119.343 60.6569 118 59 118L31 118Z" fill="#347FDB"/>
<path d="M31 139C29.3431 139 28 140.343 28 142C28 143.657 29.3431 145 31 145L77 145C78.6569 145 80 143.657 80 142C80 140.343 78.6569 139 77 139L31 139Z" fill="#347FDB"/>
<path d="M31 128.5C29.3431 128.5 28 129.843 28 131.5C28 133.157 29.3431 134.5 31 134.5L67 134.5C68.6569 134.5 70 133.157 70 131.5C70 129.843 68.6569 128.5 67 128.5L31 128.5Z" fill="#347FDB"/>
<path opacity="0.25" d="M145 99H119C117.343 99 116 100.343 116 102C116 103.657 117.343 105 119 105H145C146.657 105 148 103.657 148 102C148 100.343 146.657 99 145 99Z" fill="white"/>
<path opacity="0.5" d="M177 113H119C117.343 113 116 114.343 116 116C116 117.657 117.343 119 119 119H177C178.657 119 180 117.657 180 116C180 114.343 178.657 113 177 113Z" fill="white"/>
<path d="M198 157L198 76C198 74.8954 197.105 74 196 74L114 74C112.895 74 112 74.8954 112 76L112 157C112 158.105 112.895 159 114 159L196 159C197.105 159 198 158.105 198 157Z" fill="#0B1A3E" stroke="#98B1FF"/>
<path d="M176 83L134 83C132.343 83 131 84.3431 131 86C131 87.6569 132.343 89 134 89L176 89C177.657 89 179 87.6569 179 86C179 84.3432 177.657 83 176 83Z" fill="#C5D3E0"/>
<path d="M123 97C121.343 97 120 98.3431 120 100C120 101.657 121.343 103 123 103L184 103C185.657 103 187 101.657 187 100C187 98.3431 185.657 97 184 97L123 97Z" fill="#347FDB"/>
<path d="M123 107.5C121.343 107.5 120 108.843 120 110.5C120 112.157 121.343 113.5 123 113.5L169 113.5C170.657 113.5 172 112.157 172 110.5C172 108.843 170.657 107.5 169 107.5L123 107.5Z" fill="#347FDB"/>
<path d="M123 118C121.343 118 120 119.343 120 121C120 122.657 121.343 124 123 124L151 124C152.657 124 154 122.657 154 121C154 119.343 152.657 118 151 118L123 118Z" fill="#347FDB"/>
<path d="M123 139C121.343 139 120 140.343 120 142C120 143.657 121.343 145 123 145L169 145C170.657 145 172 143.657 172 142C172 140.343 170.657 139 169 139L123 139Z" fill="#347FDB"/>
<path d="M123 128.5C121.343 128.5 120 129.843 120 131.5C120 133.157 121.343 134.5 123 134.5L159 134.5C160.657 134.5 162 133.157 162 131.5C162 129.843 160.657 128.5 159 128.5L123 128.5Z" fill="#347FDB"/>
<path d="M79 45H22C20.8954 45 20 45.8954 20 47V53C20 54.1046 20.8954 55 22 55H79C80.1046 55 81 54.1046 81 53V47C81 45.8954 80.1046 45 79 45Z" fill="white"/>
<path d="M149 45H92C90.8954 45 90 45.8954 90 47V53C90 54.1046 90.8954 55 92 55H149C150.105 55 151 54.1046 151 53V47C151 45.8954 150.105 45 149 45Z" fill="white"/>
<path d="M218 45H161C159.895 45 159 45.8954 159 47V53C159 54.1046 159.895 55 161 55H218C219.105 55 220 54.1046 220 53V47C220 45.8954 219.105 45 218 45Z" fill="white"/>
<path d="M288 45H231C229.895 45 229 45.8954 229 47V53C229 54.1046 229.895 55 231 55H288C289.105 55 290 54.1046 290 53V47C290 45.8954 289.105 45 288 45Z" fill="white"/>
<path d="M10 10H300V32H10V10Z" fill="black"/>
<path d="M10 10H300V32H10V10Z" fill="white"/>
<path d="M287 18H269C267.343 18 266 19.3431 266 21C266 22.6569 267.343 24 269 24H287C288.657 24 290 22.6569 290 21C290 19.3431 288.657 18 287 18Z" fill="#E4EAF0"/>
<path d="M251 18H233C231.343 18 230 19.3431 230 21C230 22.6569 231.343 24 233 24H251C252.657 24 254 22.6569 254 21C254 19.3431 252.657 18 251 18Z" fill="#E4EAF0"/>
<path d="M215 18H197C195.343 18 194 19.3431 194 21C194 22.6569 195.343 24 197 24H215C216.657 24 218 22.6569 218 21C218 19.3431 216.657 18 215 18Z" fill="#E4EAF0"/>
<path d="M179 18H161C159.343 18 158 19.3431 158 21C158 22.6569 159.343 24 161 24H179C180.657 24 182 22.6569 182 21C182 19.3431 180.657 18 179 18Z" fill="#C5D3E0"/>
<path d="M88 18H46C44.3431 18 43 19.3431 43 21C43 22.6569 44.3431 24 46 24H88C89.6569 24 91 22.6569 91 21C91 19.3431 89.6569 18 88 18Z" fill="#C5D3E0"/>
<path d="M300 32H10V35H300V32Z" fill="#00A1E0"/>
<path d="M25.4486 18.0054C25.8703 17.5838 26.4378 17.3081 27.0865 17.3081C27.9297 17.3081 28.6757 17.7784 29.0811 18.4757C29.4216 18.3297 29.8108 18.2324 30.2 18.2324C31.7405 18.2324 32.9892 19.4811 32.9892 21.0216C32.9892 22.5622 31.7405 23.8108 30.2 23.8108C30.0054 23.8108 29.827 23.7784 29.6486 23.7622C29.3081 24.3784 28.627 24.8 27.8486 24.8C27.5243 24.8 27.2324 24.7189 26.9568 24.6054C26.6162 25.4324 25.7892 26 24.8162 26C23.827 26 22.9514 25.3838 22.627 24.4757C22.4811 24.5081 22.3351 24.5243 22.173 24.5243C20.973 24.5243 20 23.5514 20 22.3514C20 21.5568 20.4216 20.8595 21.0703 20.4865C20.9405 20.1946 20.8757 19.8378 20.8757 19.4973C20.8757 18.1351 21.9946 17 23.3892 17C24.2649 17.0324 24.9946 17.4054 25.4486 18.0054Z" fill="#00A1E0"/>
</g>
</g>
<defs>
<clipPath id="clip0_1_2">
<rect width="310" height="174" fill="white"/>
</clipPath>
<clipPath id="clip1_1_2">
<rect width="310" height="174" fill="white"/>
</clipPath>
</defs>
</svg>
